<?xml version="1.0" standalone="no"?>
<!DOCTYPE svg PUBLIC "-//W3C//DTD SVG 20010904//EN"
 "http://www.w3.org/TR/2001/REC-SVG-20010904/DTD/svg10.dtd">
<svg version="1.0" xmlns="http://www.w3.org/2000/svg"
 width="1200.000000pt" height="1200.000000pt" viewBox="0 0 1200.000000 1200.000000"
 preserveAspectRatio="xMidYMid meet">

<g transform="translate(0.000000,1200.000000) scale(0.100000,-0.100000)"
fill="#000000" stroke="none">
<path d="M0 6000 l0 -6000 6000 0 6000 0 0 6000 0 6000 -6000 0 -6000 0 0
-6000z m2092 5384 c125 -125 138 -141 148 -186 8 -40 7 -56 -5 -82 -9 -18 -80
-96 -159 -174 l-143 -142 -59 0 -60 0 -158 160 -159 159 6 62 5 62 139 139
138 138 85 0 85 0 137 -136z m303 -309 c44 -33 269 -262 277 -283 3 -9 7 -38
7 -63 1 -58 -13 -76 -170 -229 -190 -185 -207 -185 -389 -7 -182 177 -183 179
-177 251 l5 59 124 125 c167 169 189 184 247 176 25 -3 60 -17 76 -29z m836
24 c46 -16 305 -272 320 -317 6 -18 8 -53 5 -76 -7 -45 -56 -101 -237 -273
l-77 -72 -54 2 c-45 2 -62 8 -99 37 l-44 35 38 -44 c32 -39 37 -51 37 -95 0
-64 -6 -72 -152 -219 -65 -64 -118 -121 -118 -125 0 -3 60 53 133 126 199 199
214 199 411 5 l131 -128 -133 136 -132 136 0 63 0 63 148 149 c81 82 158 152
172 155 87 22 112 8 273 -156 l147 -149 0 -46 c0 -26 -7 -60 -15 -76 -18 -34
-15 -36 25 -15 20 10 43 13 77 8 45 -6 56 -14 181 -137 144 -140 172 -181 172
-247 0 -41 -4 -47 -158 -201 -153 -154 -158 -158 -199 -158 -23 0 -55 5 -70
12 -15 6 -86 68 -158 137 l-130 126 133 -136 c118 -120 134 -140 139 -177 10
-71 -2 -90 -145 -236 -136 -137 -176 -166 -229 -166 -44 1 -67 19 -202 151
-157 155 -161 160 -161 230 0 49 4 59 30 85 37 37 40 57 3 22 -57 -52 -114
-63 -168 -29 -16 10 -91 80 -166 155 -141 141 -157 166 -143 224 4 15 11 33
17 40 15 19 -1 28 -23 14 -11 -7 -41 -12 -67 -12 l-47 0 -158 158 -158 158 0
47 c0 27 6 60 14 75 21 39 277 288 306 297 22 7 46 9 95 6 8 -1 68 -52 133
-113 l117 -113 -105 110 c-117 122 -141 167 -121 228 14 43 286 314 326 326
41 13 47 13 86 0z m1814 -919 c22 -20 90 -87 152 -148 101 -100 112 -116 118
-156 4 -24 4 -53 1 -64 -7 -21 -226 -248 -291 -299 -43 -35 -96 -43 -138 -22
-12 6 -78 66 -147 133 l-125 121 128 -131 127 -131 0 -67 0 -67 -151 -149
c-84 -83 -158 -150 -165 -151 -8 0 -30 -1 -49 -1 -19 0 -43 1 -52 1 -20 1
-289 265 -309 303 -17 33 -18 78 -2 115 19 43 268 290 310 308 49 20 86 19
124 -4 l31 -19 -19 36 c-40 80 -19 123 141 283 71 71 144 136 162 144 51 22
106 10 154 -35z m458 -459 c317 -301 316 -298 105 -510 -73 -74 -143 -140
-156 -149 -20 -13 -49 -16 -116 -13 -26 1 -294 267 -312 308 -19 44 -17 93 4
124 29 44 278 288 303 298 13 5 41 10 62 10 34 1 46 -7 110 -68z m-1393 -381
c24 -7 74 -49 168 -142 73 -73 140 -145 148 -160 26 -50 18 -98 -24 -148 -68
-80 -272 -279 -293 -285 -12 -4 -41 -4 -66 0 -41 6 -56 18 -192 156 -134 135
-149 153 -154 191 -3 25 0 54 7 72 20 47 254 285 301 307 46 22 58 23 105 9z
m886 -1 c19 -6 84 -63 172 -152 129 -132 141 -146 147 -189 5 -32 3 -54 -8
-75 -23 -43 -278 -300 -310 -312 -81 -31 -113 -12 -291 167 -106 107 -119 124
-127 166 -6 35 -5 56 5 81 16 37 256 284 298 306 34 18 74 21 114 8z m877 -3
c18 -7 97 -79 176 -159 l143 -146 -4 -64 -4 -64 -82 -78 c-45 -43 -82 -82 -82
-87 0 -4 33 24 73 63 88 87 122 109 167 109 52 0 78 -18 181 -124 52 -54 110
-109 129 -123 19 -14 -25 35 -99 109 -195 198 -195 208 6 413 73 74 142 139
154 146 34 18 98 20 127 5 15 -8 92 -80 171 -160 l143 -146 -4 -61 -4 -60
-140 -140 c-76 -77 -152 -147 -168 -156 -28 -14 -74 -14 -123 2 -22 7 -22 6
-9 -21 8 -18 11 -47 8 -74 -4 -42 -13 -54 -146 -189 -176 -179 -220 -200 -299
-147 l-36 25 20 -32 c12 -21 19 -50 19 -86 l0 -54 -147 -149 c-145 -146 -170
-164 -225 -161 -10 0 -28 1 -40 2 -27 1 -291 261 -314 309 -20 42 -14 114 11
142 23 25 14 25 -27 0 -76 -46 -122 -23 -285 142 -132 134 -153 164 -153 219
0 49 21 77 168 223 131 129 142 138 184 143 68 8 100 -13 245 -160 109 -110
133 -139 143 -177 9 -34 9 -52 -1 -82 -7 -21 -16 -38 -21 -38 -4 0 -8 -5 -8
-12 0 -6 7 -4 18 5 32 29 105 33 151 9 l40 -21 -19 32 c-22 35 -26 91 -9 134
5 15 32 48 60 74 27 25 49 49 49 54 0 4 -29 -19 -64 -53 -68 -66 -96 -78 -154
-67 -31 5 -62 32 -189 159 l-153 152 0 57 0 58 143 146 c170 175 202 193 280
159z m-1310 -440 c18 -7 93 -76 168 -152 121 -123 137 -144 143 -182 4 -27 1
-54 -8 -76 -8 -18 -75 -94 -150 -169 -203 -203 -216 -204 -408 -15 -68 67
-135 137 -150 156 -31 38 -36 83 -16 129 13 30 252 276 297 305 31 21 80 23
124 4z m2635 0 c32 -17 285 -272 301 -303 6 -12 11 -39 11 -61 0 -52 -28 -88
-181 -238 -181 -177 -200 -177 -382 3 -155 153 -177 184 -177 240 0 24 4 52 9
61 14 27 250 262 289 288 40 27 90 31 130 10z m-2034 -586 c205 -208 206 -214
8 -416 -70 -72 -139 -138 -154 -148 -33 -21 -103 -25 -136 -7 -13 7 -86 76
-163 154 -203 207 -202 212 19 429 91 90 158 148 173 150 13 2 43 -1 66 -6 37
-8 62 -29 187 -156z m1609 138 c38 -27 280 -275 289 -296 17 -42 8 -99 -21
-138 -46 -62 -264 -271 -291 -280 -30 -9 -78 -9 -114 0 -26 6 -27 6 -13 -21 8
-18 11 -45 7 -76 -6 -47 -12 -54 -156 -196 -214 -212 -220 -212 -436 6 -130
131 -148 158 -148 221 0 47 19 72 176 225 116 113 136 129 172 134 22 3 53 2
69 -2 17 -4 83 -61 168 -143 l140 -137 -132 135 c-142 145 -164 179 -153 240
8 46 21 61 178 215 150 148 190 165 265 113z m1001 -116 c149 -148 176 -183
176 -234 0 -21 -6 -51 -14 -66 -21 -40 -291 -302 -312 -303 -107 -5 -102 -8
-277 169 -190 190 -190 204 -5 392 158 161 170 171 210 180 55 12 96 -13 222
-138z m-3063 -448 c161 -161 177 -186 160 -256 -9 -41 -24 -61 -106 -143 -192
-193 -236 -221 -305 -193 -30 13 -278 249 -312 298 -22 30 -23 91 -4 128 16
29 269 283 301 301 11 6 44 10 73 8 l54 -4 139 -139z m737 132 c44 -23 300
-288 307 -319 17 -67 1 -94 -148 -244 -77 -78 -154 -149 -171 -157 -20 -10
-46 -13 -74 -9 -38 5 -55 19 -174 137 -73 72 -143 144 -155 160 -26 33 -30 97
-10 133 15 27 265 283 292 300 27 17 100 16 133 -1z m1744 5 c24 -10 271 -248
300 -291 21 -30 23 -89 4 -133 -7 -18 -74 -91 -147 -163 -204 -199 -214 -199
-414 -5 l-130 126 121 -125 c67 -69 127 -135 133 -147 14 -28 14 -98 0 -126
-16 -31 -259 -276 -291 -293 -35 -18 -101 -18 -136 0 -32 17 -275 262 -291
293 -6 12 -11 45 -11 73 l0 50 146 145 c80 80 154 150 164 155 24 13 96 13
119 1 16 -9 17 -5 13 44 -2 30 -2 66 2 80 7 27 277 302 311 316 27 11 79 11
107 0z m886 -5 c29 -16 269 -255 296 -296 18 -28 21 -76 5 -117 -12 -32 -238
-264 -291 -298 -31 -21 -43 -23 -85 -16 -26 4 -55 11 -63 17 -8 5 -76 72 -151
149 -197 202 -197 207 -5 404 72 73 145 142 161 152 36 23 96 25 133 5z m-288
-579 c162 -162 173 -182 153 -259 -10 -37 -10 -38 16 -31 35 9 96 7 117 -5 29
-16 285 -276 300 -304 8 -15 14 -41 14 -58 0 -50 -20 -77 -164 -220 -157 -157
-175 -167 -272 -145 -20 4 -21 2 -11 -33 20 -77 9 -96 -152 -259 -209 -211
-215 -211 -419 -9 -141 138 -158 161 -168 222 -5 32 -1 46 21 78 l27 39 -27
-17 c-42 -28 -80 -35 -123 -24 -31 8 -68 38 -182 153 l-144 144 -4 66 -4 66
147 149 c119 120 155 150 187 158 43 11 80 4 124 -24 l28 -19 -24 33 c-29 39
-32 100 -7 147 27 51 269 285 310 299 77 26 93 17 257 -147z m-2781 144 c8 -5
77 -72 153 -147 135 -135 158 -167 158 -227 0 -36 -31 -75 -172 -214 l-145
-143 -56 0 c-55 0 -59 2 -115 53 -169 158 -262 262 -262 296 0 69 19 96 155
231 74 74 145 140 158 147 26 14 106 17 126 4z m879 -5 c15 -8 89 -77 165
-153 l137 -140 0 -55 c0 -70 -16 -92 -182 -255 l-125 -123 -56 0 c-64 0 -69 4
-242 175 -118 117 -135 140 -134 189 0 22 3 49 7 58 8 20 230 249 281 291 39
31 103 37 149 13z m2635 -5 c45 -29 288 -274 298 -299 14 -37 10 -90 -8 -120
-18 -27 -167 -178 -256 -258 -44 -41 -51 -44 -104 -44 l-56 0 -143 142 c-79
78 -151 157 -159 175 -12 24 -15 46 -10 76 6 37 24 59 139 176 72 73 145 142
161 152 38 24 102 24 138 0z m-3087 -428 c19 -7 134 -108 134 -118 0 -2 41
-44 90 -94 92 -93 97 -101 91 -176 -4 -39 -13 -52 -139 -179 -59 -60 -88 -95
-65 -77 23 17 54 46 69 64 14 18 55 58 91 90 62 55 66 57 119 57 l56 0 121
-117 c140 -136 137 -124 -5 21 -73 73 -99 107 -104 132 -14 74 -2 93 150 246
212 214 221 214 424 14 73 -72 140 -143 148 -158 8 -15 14 -45 14 -68 0 -23
-6 -53 -14 -68 -8 -15 -75 -86 -148 -158 -124 -123 -165 -152 -208 -148 -8 1
-23 2 -32 3 -9 0 -30 13 -47 27 -36 30 -40 22 -11 -21 14 -21 20 -47 20 -84
l0 -54 -137 -140 c-76 -76 -151 -145 -166 -153 -37 -20 -101 -20 -129 -1 -43
29 -289 279 -299 304 -17 46 -11 99 16 131 34 41 31 49 -6 18 -17 -14 -38 -26
-47 -27 -9 -1 -26 -2 -37 -3 -45 -3 -90 30 -211 151 -143 145 -164 173 -164
224 0 49 25 83 169 227 145 145 182 165 257 135z m3514 -1 c14 -5 89 -75 166
-154 204 -206 204 -208 5 -413 -131 -135 -181 -172 -226 -169 -11 1 -28 2 -39
3 -10 1 -85 67 -167 148 -221 218 -221 226 -12 435 76 75 150 143 165 151 29
15 69 14 108 -1z m-2187 -443 c31 -16 276 -259 293 -291 17 -32 18 -101 3
-131 -6 -12 -70 -83 -143 -157 l-131 -135 140 136 c209 203 220 204 409 20
158 -154 176 -180 176 -246 l0 -53 -112 -113 c-185 -185 -203 -199 -248 -199
-21 0 -49 4 -62 9 -35 13 -307 287 -314 316 -4 14 -4 50 -2 80 4 51 4 53 -15
43 -26 -14 -90 -12 -118 3 -12 6 -86 76 -165 155 -137 139 -142 146 -146 191
-2 26 2 58 10 72 16 33 247 267 287 292 34 21 104 25 138 8z m1794 -32 c82
-74 237 -231 256 -259 21 -34 22 -89 2 -128 -17 -32 -11 -37 20 -17 28 19 81
20 115 2 16 -8 92 -79 169 -157 124 -125 141 -146 146 -182 4 -23 1 -54 -5
-71 -12 -34 -260 -289 -302 -311 -39 -20 -97 -17 -137 7 l-35 21 16 -24 c8
-13 19 -38 22 -56 14 -61 -2 -92 -98 -192 -50 -52 -82 -88 -71 -80 11 8 49 45
85 82 134 136 188 131 345 -33 50 -52 99 -100 110 -108 11 -8 -32 39 -96 105
-64 65 -122 129 -128 141 -15 30 -14 82 3 114 19 37 255 277 291 296 40 22
107 20 142 -3 15 -10 88 -80 161 -155 l132 -136 0 -63 0 -62 -132 -135 c-73
-74 -148 -144 -167 -155 -39 -25 -112 -26 -147 -3 l-23 15 24 -41 c40 -72 18
-113 -152 -281 -149 -147 -187 -169 -248 -143 -21 8 -40 14 -42 12 -2 -3 1
-16 7 -31 15 -40 12 -88 -6 -116 -38 -56 -280 -290 -312 -301 -51 -17 -104 -3
-143 37 -57 59 -77 61 -27 2 93 -109 84 -144 -75 -307 -147 -149 -188 -181
-234 -181 -55 0 -91 26 -226 161 -159 159 -181 204 -137 277 13 21 16 32 8 29
-106 -44 -137 -36 -239 61 -44 42 -112 112 -150 155 -68 77 -69 78 -69 136 0
45 4 62 20 76 34 30 22 37 -17 10 -44 -29 -90 -32 -136 -9 -33 18 -260 239
-289 283 -12 16 -18 45 -18 79 l0 53 147 150 c211 215 227 217 396 47 59 -59
110 -108 113 -108 12 0 -20 42 -58 74 -23 20 -68 66 -100 102 -56 63 -58 67
-58 121 l0 56 133 135 c179 181 174 178 281 173 24 -1 301 -277 315 -314 16
-43 13 -89 -9 -122 -10 -16 -72 -82 -136 -147 -64 -65 -113 -118 -110 -118 4
0 67 58 139 130 181 178 201 180 348 42 39 -37 105 -105 145 -151 67 -75 74
-88 74 -125 0 -23 -9 -55 -20 -74 -26 -43 -25 -48 5 -23 14 11 39 23 55 26 62
14 89 -2 223 -134 71 -69 132 -128 135 -131 4 -2 -50 54 -119 125 -70 72 -132
140 -138 152 -26 51 0 137 57 184 15 13 32 31 36 39 5 8 -17 -10 -48 -40 l-57
-55 -65 0 -65 0 -149 151 -150 150 0 64 0 63 147 149 c150 151 155 155 210
161 51 7 89 -17 211 -135 l117 -112 -116 119 c-128 131 -139 148 -139 197 1
50 16 70 156 210 71 70 125 128 120 128 -4 0 -61 -52 -126 -116 -65 -64 -130
-125 -146 -135 -34 -22 -94 -25 -132 -5 -15 8 -88 77 -163 153 -120 121 -138
143 -144 179 -4 28 -1 53 8 75 8 19 80 98 159 177 l145 142 56 0 c52 0 60 -3
104 -43z m990 -111 l153 -154 0 -56 c0 -37 -6 -66 -17 -83 -10 -14 -13 -24 -8
-22 125 60 126 60 303 -114 79 -78 150 -154 158 -169 18 -35 12 -99 -14 -134
-11 -16 -78 -86 -149 -156 -104 -103 -135 -128 -165 -133 -78 -15 -96 -4 -243
143 -148 149 -164 170 -165 219 0 56 18 83 140 205 66 66 120 122 120 126 0 4
-55 -48 -122 -115 -68 -66 -133 -126 -145 -132 -12 -6 -43 -11 -69 -11 l-47 0
-146 143 c-80 78 -151 153 -158 166 -7 13 -13 44 -13 69 l0 46 158 158 158
158 58 0 59 0 154 -154z m-3239 -286 c22 0 302 -278 317 -315 14 -35 12 -83
-4 -114 -11 -20 -10 -21 12 -15 50 12 93 9 127 -7 34 -17 262 -240 294 -289
17 -27 21 -85 7 -122 -12 -32 -289 -307 -316 -314 -65 -16 -91 -8 -147 45 -51
47 -48 34 3 -21 22 -23 45 -53 49 -65 10 -24 7 -89 -5 -117 -7 -16 -5 -17 16
-11 29 10 77 11 109 2 14 -3 91 -73 173 -155 l147 -149 0 -63 0 -64 -147 -147
c-123 -123 -154 -149 -185 -154 -77 -14 -96 -4 -238 138 -73 72 -141 146 -151
162 -21 34 -25 95 -8 128 6 12 68 80 138 152 l126 130 -135 -132 c-118 -115
-140 -132 -177 -138 -76 -12 -92 -3 -239 145 -220 220 -220 223 -2 441 101
100 157 149 177 154 43 9 103 -11 136 -46 17 -17 39 -35 50 -40 11 -6 -1 9
-26 33 -25 24 -53 55 -62 70 -21 34 -24 95 -7 128 6 14 67 81 134 150 l121
125 -125 -121 c-69 -67 -134 -126 -145 -131 -35 -16 -103 -16 -127 1 -28 20
-216 204 -269 265 -33 37 -39 51 -39 88 0 24 6 56 14 71 19 36 263 276 301
296 17 9 42 14 59 11 16 -3 35 -5 44 -5z m1781 -14 c20 -13 93 -82 163 -153
137 -140 150 -163 129 -239 -8 -30 -40 -68 -145 -173 -146 -146 -165 -160
-214 -161 -59 0 -95 26 -234 167 -199 203 -199 205 5 412 78 79 155 149 170
156 45 19 86 16 126 -9z m-2173 -465 c21 -16 91 -82 155 -147 186 -190 186
-203 -24 -413 -132 -131 -148 -144 -191 -152 -68 -13 -98 7 -256 165 l-135
136 0 65 0 65 145 146 c80 80 154 150 165 154 44 19 101 11 141 -19z m3909
-405 c12 -3 89 -75 173 -159 205 -207 206 -197 -16 -421 -151 -153 -170 -164
-240 -151 -30 5 -63 33 -172 138 -74 73 -124 119 -110 102 14 -16 66 -69 115
-118 114 -113 125 -129 125 -194 0 -60 -9 -73 -170 -232 -142 -140 -137 -137
-244 -132 -22 1 -290 262 -312 303 -19 36 -18 98 2 128 32 49 260 272 296 291
46 24 91 24 125 2 27 -18 27 -18 19 7 -16 48 -18 101 -7 129 7 15 74 89 149
164 156 155 180 168 267 143z m593 -579 l142 -142 0 -81 0 -82 -122 -124 c-68
-69 -135 -132 -150 -142 -38 -25 -102 -30 -138 -12 -35 17 -35 15 -14 -30 32
-66 17 -93 -134 -249 -143 -147 -182 -174 -245 -175 -36 0 -47 9 -184 143 -80
78 -152 155 -160 171 -11 21 -14 45 -9 79 5 49 10 54 154 200 l149 149 57 0
c44 1 64 -4 87 -21 l30 -22 -20 40 c-29 55 -27 109 4 152 42 57 256 267 289
284 21 11 45 14 76 10 42 -5 54 -14 188 -148z m-1440 -315 c15 -11 84 -78 153
-149 188 -193 187 -202 -14 -403 -144 -145 -178 -171 -227 -172 -42 -1 -70 20
-222 175 -148 151 -158 169 -138 242 10 35 37 67 149 178 75 75 146 140 158
144 37 14 111 6 141 -15z m-1610 -144 c79 -79 151 -158 158 -175 9 -21 12 -47
8 -73 -6 -35 -25 -59 -154 -189 -138 -140 -151 -150 -194 -156 -29 -5 -57 -3
-75 5 -16 6 -92 74 -168 151 -115 116 -139 146 -146 179 -16 77 0 103 156 258
l144 142 63 0 63 0 145 -142z m1135 -277 c25 -10 248 -225 298 -287 34 -43 39
-104 11 -144 -9 -14 -81 -88 -160 -164 l-142 -140 -48 1 c-27 0 -60 6 -73 13
-13 7 -85 73 -159 148 l-134 136 -4 57 c-6 75 6 93 155 241 148 146 184 166
256 139z m891 -6 c18 -9 91 -75 163 -148 202 -206 202 -214 -9 -424 -109 -108
-153 -145 -186 -156 -23 -8 -45 -11 -48 -6 -3 5 -13 9 -23 9 -19 0 -300 270
-319 307 -20 37 -14 96 12 131 60 82 265 279 306 295 28 10 72 7 104 -8z m884
-4 c20 -10 92 -75 160 -145 l122 -125 0 -86 0 -85 -135 -134 c-208 -206 -217
-206 -418 -8 -76 76 -145 149 -153 164 -8 15 -14 48 -14 74 l0 47 148 150 c81
82 156 153 167 157 34 15 84 11 123 -9z m-1326 -432 c34 -18 298 -289 309
-315 14 -39 11 -76 -10 -109 -25 -40 -248 -267 -285 -289 -38 -24 -107 -24
-143 -1 -50 33 -292 284 -299 311 -19 74 11 119 200 302 113 109 117 112 162
112 25 0 55 -5 66 -11z m875 0 c33 -12 278 -252 299 -292 21 -40 22 -108 1
-137 -23 -33 -22 -47 3 -25 26 23 97 31 135 14 38 -17 295 -280 295 -301 0 -9
-64 49 -141 128 -209 212 -209 212 -412 6 -148 -151 -164 -180 -134 -238 9
-16 78 -91 154 -166 137 -135 141 -138 183 -138 44 0 46 2 197 153 113 112
153 147 153 132 0 -14 -48 -69 -137 -157 -151 -149 -192 -173 -251 -149 -16 7
-98 81 -182 166 l-153 154 5 56 5 56 126 128 c70 70 127 132 127 137 0 5 -55
-46 -123 -114 -67 -68 -130 -128 -141 -134 -10 -6 -40 -10 -67 -11 -56 0 -68
8 -246 191 -84 86 -114 124 -119 149 -13 72 -2 90 149 239 78 78 151 147 162
153 26 14 76 14 112 0z m-174 -1611 c104 -202 230 -447 421 -822 188 -367 249
-479 296 -542 40 -53 89 -83 150 -93 31 -6 35 -10 38 -39 l3 -32 -480 0 -481
0 0 30 c0 17 1 30 3 30 1 1 31 3 67 6 79 6 146 29 152 52 7 28 -9 70 -80 207
l-67 130 -317 3 -318 2 -27 -42 c-46 -74 -93 -190 -93 -235 0 -34 5 -46 30
-67 31 -25 56 -33 152 -45 51 -6 53 -7 56 -38 l3 -33 -634 0 -635 0 -78 96
c-107 131 -184 224 -279 339 -44 53 -104 127 -133 163 -99 123 -110 132 -165
132 l-49 0 4 -284 c3 -270 4 -286 24 -313 28 -38 63 -54 132 -59 97 -9 102
-11 102 -44 l0 -30 -505 0 -505 0 0 24 c0 33 17 42 80 45 30 2 77 10 105 19
85 29 80 -14 80 727 0 358 -3 662 -8 677 -13 47 -58 69 -150 75 -45 3 -88 10
-94 16 -15 11 -17 53 -4 62 5 3 277 5 604 5 706 0 776 -6 927 -79 96 -47 180
-127 220 -212 27 -59 30 -73 30 -169 0 -96 -3 -110 -29 -165 -59 -119 -153
-193 -304 -240 l-69 -21 44 -49 c24 -28 73 -85 108 -128 36 -43 94 -114 130
-157 36 -43 102 -122 146 -177 105 -126 130 -149 183 -168 64 -22 100 -19 170
16 99 49 111 68 379 579 299 571 330 631 430 822 128 248 120 247 235 26z
m-7150 122 c4 0 7 -16 7 -35 0 -33 -8 -40 -40 -37 -31 3 -155 -21 -174 -33
-51 -34 -51 -32 -51 -730 0 -614 1 -652 18 -679 31 -47 98 -68 240 -76 4 0 7
-13 7 -30 l0 -30 -515 0 -515 0 0 30 c0 17 3 30 8 30 76 4 136 13 175 26 87
29 82 -18 85 714 3 697 2 704 -49 742 -17 13 -48 21 -90 24 -126 10 -129 11
-129 49 0 18 4 35 10 37 7 2 799 1 1013 -2z m1890 0 c4 0 7 -103 7 -230 0
-208 -2 -230 -17 -238 -36 -19 -83 8 -83 45 0 32 -64 152 -103 191 -78 81
-172 112 -339 112 l-88 0 0 -675 c0 -750 -2 -728 64 -759 34 -16 142 -39 169
-35 29 4 37 -3 37 -31 l0 -30 -515 0 -515 0 0 30 c0 17 3 30 8 31 160 11 210
28 239 81 17 31 18 77 21 711 l3 677 -85 0 c-109 0 -227 -23 -281 -54 -76 -45
-120 -107 -160 -226 l-23 -65 -38 0 -39 0 -3 229 c-1 133 2 232 7 235 6 4
1222 5 1734 1z m1759 -8 c5 -5 7 -118 6 -253 l-3 -244 -41 -3 -41 -3 -13 48
c-21 78 -69 176 -103 211 -41 43 -129 88 -209 107 -39 10 -138 18 -260 22
l-198 6 0 -318 0 -318 71 7 c159 14 234 91 284 290 l23 91 33 0 34 0 3 -442
c1 -244 -1 -443 -5 -444 -5 0 -18 -2 -30 -3 -12 -1 -26 0 -31 3 -5 3 -19 44
-31 91 -24 97 -70 179 -122 221 -37 29 -135 59 -196 59 l-33 0 0 -272 c0 -316
4 -342 58 -365 40 -18 250 -22 365 -9 123 15 235 61 326 134 52 42 133 162
156 232 9 28 20 50 23 51 85 10 85 10 57 -161 -34 -206 -55 -331 -61 -357 l-4
-23 -845 0 -845 0 0 24 c0 33 9 37 88 42 78 5 151 37 169 74 10 19 13 181 13
683 0 558 -2 662 -15 686 -20 39 -79 61 -163 61 -40 0 -73 5 -80 12 -14 14
-16 50 -3 64 12 11 1611 8 1623 -4z"/>
<path d="M3899 10134 c-22 -25 -22 -26 -3 -16 12 6 24 18 28 27 8 21 3 19 -25
-11z"/>
<path d="M3860 10089 c0 -5 5 -7 10 -4 6 3 10 8 10 11 0 2 -4 4 -10 4 -5 0
-10 -5 -10 -11z"/>
<path d="M3779 10014 c-22 -25 -22 -26 -3 -16 12 6 24 18 28 27 8 21 3 19 -25
-11z"/>
<path d="M3735 9970 c-3 -5 -1 -10 4 -10 6 0 11 5 11 10 0 6 -2 10 -4 10 -3 0
-8 -4 -11 -10z"/>
<path d="M3545 9920 c26 -51 20 -110 -17 -155 l-33 -40 37 28 c47 35 114 45
157 24 36 -18 36 -18 16 19 -19 36 -19 81 0 114 21 37 18 42 -15 25 -38 -20
-114 -20 -130 0 -21 26 -31 16 -15 -15z"/>
<path d="M3419 9654 c-22 -25 -22 -26 -3 -16 12 6 24 18 28 27 8 21 3 19 -25
-11z"/>
<path d="M3330 9559 c0 -5 5 -7 10 -4 6 3 10 8 10 11 0 2 -4 4 -10 4 -5 0 -10
-5 -10 -11z"/>
<path d="M5686 8405 c-11 -8 -17 -17 -14 -20 2 -3 13 4 23 15 21 23 18 25 -9
5z"/>
<path d="M6035 8320 c49 -49 92 -90 95 -90 2 0 -36 41 -85 90 -49 50 -92 90
-95 90 -2 0 36 -40 85 -90z"/>
<path d="M5594 8318 c-91 -96 -100 -114 -16 -33 45 44 82 81 82 82 0 13 -23
-5 -66 -49z"/>
<path d="M7789 6994 c-63 -63 -126 -122 -141 -130 -40 -21 -120 -18 -150 6
l-26 20 20 -38 c25 -48 20 -121 -12 -165 l-23 -32 26 24 c34 31 120 41 163 18
16 -8 70 -57 121 -109 50 -51 109 -109 130 -128 21 -19 -26 30 -103 110 -202
208 -202 217 -7 412 70 71 125 128 122 128 -3 0 -57 -52 -120 -116z"/>
<path d="M7355 7000 c49 -49 92 -90 95 -90 2 0 -36 41 -85 90 -49 50 -92 90
-95 90 -2 0 36 -40 85 -90z"/>
<path d="M7355 6558 l-90 -93 93 90 c50 49 92 91 92 92 0 8 -12 -4 -95 -89z"/>
<path d="M7480 5108 c27 -37 31 -50 27 -88 -2 -25 -8 -56 -12 -70 -9 -25 -9
-25 18 -7 30 19 73 22 112 7 28 -11 296 -274 314 -309 14 -26 14 -86 0 -114
-6 -12 -66 -77 -132 -144 -67 -68 -119 -123 -115 -123 3 0 60 54 125 119 65
66 131 125 146 130 52 20 93 13 141 -24 25 -19 46 -33 46 -32 0 2 -13 19 -30
37 -25 28 -30 42 -30 87 0 69 14 94 97 174 37 36 81 81 98 100 16 19 -20 -14
-80 -72 -119 -116 -138 -129 -184 -129 -53 0 -76 16 -224 163 -159 158 -173
183 -148 254 7 19 11 36 9 38 -2 2 -23 -2 -46 -10 -37 -13 -47 -13 -76 -1 -18
8 -37 19 -40 25 -4 6 -16 16 -27 22 -16 8 -13 1 11 -33z"/>
<path d="M7444 4899 c-19 -22 -19 -22 4 -10 12 6 22 16 22 21 0 15 -5 12 -26
-11z"/>
<path d="M8327 4903 c-4 -3 -7 -11 -7 -17 0 -6 5 -5 12 2 6 6 9 14 7 17 -3 3
-9 2 -12 -2z"/>
<path d="M7335 4790 c-38 -38 -67 -71 -65 -73 3 -2 38 29 79 69 41 41 70 74
65 74 -5 0 -40 -32 -79 -70z"/>
<path d="M8191 4402 c13 -15 37 -38 53 -52 26 -21 28 -22 18 -3 -11 20 -78 83
-88 83 -3 0 5 -12 17 -28z"/>
<path d="M6450 5265 c0 -2 10 -10 23 -16 20 -11 21 -11 8 4 -13 16 -31 23 -31
12z"/>
<path d="M6490 5227 c0 -2 15 -16 33 -33 l32 -29 -29 33 c-28 30 -36 37 -36
29z"/>
<path d="M9936 4418 c52 -59 75 -81 120 -119 22 -18 -4 11 -56 64 -99 101
-130 127 -64 55z"/>
<path d="M9497 2098 c-19 -35 -184 -348 -366 -697 -182 -348 -348 -658 -369
-689 -78 -118 -152 -166 -257 -167 -67 0 -134 31 -177 83 -13 16 -137 165
-276 332 -179 214 -250 305 -240 311 7 3 29 10 48 14 58 12 179 72 228 114
129 108 166 292 91 448 -31 64 -120 151 -195 191 -146 76 -318 92 -1017 92
-439 0 -498 -2 -504 -15 -9 -24 0 -27 84 -35 92 -8 136 -28 160 -73 17 -30 18
-80 18 -699 0 -662 0 -667 -21 -695 -35 -46 -77 -64 -164 -70 -69 -5 -80 -8
-80 -24 0 -18 19 -19 490 -19 471 0 490 1 490 19 0 16 -11 19 -78 24 -82 5
-124 20 -156 56 -26 29 -37 165 -34 426 l3 210 65 0 65 0 304 -368 304 -367
618 0 c601 0 619 1 619 19 0 16 -10 20 -72 26 -192 18 -220 92 -117 305 l53
110 338 0 338 0 75 -151 c60 -118 75 -159 73 -186 -5 -54 -38 -73 -137 -80
-70 -5 -81 -8 -81 -24 0 -18 18 -19 460 -19 440 0 460 1 460 18 0 15 -13 22
-56 31 -68 16 -117 61 -180 167 -22 38 -200 378 -394 757 -194 378 -359 687
-366 687 -7 0 -28 -28 -47 -62z m-2006 -72 c89 -19 138 -46 186 -100 92 -105
107 -313 32 -444 -61 -108 -166 -148 -404 -154 l-130 -3 -3 358 -2 357 127 0
c71 0 158 -7 194 -14z m2012 -695 c75 -148 137 -271 137 -275 0 -3 -128 -6
-285 -6 -157 0 -285 2 -285 4 0 11 283 546 288 546 4 0 69 -121 145 -269z"/>
<path d="M7197 2023 c-4 -3 -7 -159 -7 -346 l0 -340 118 7 c215 12 314 46 370
129 42 61 55 111 55 207 0 214 -87 307 -318 340 -80 11 -208 13 -218 3z"/>
<path d="M9279 1418 c-39 -79 -96 -188 -125 -244 -30 -56 -51 -104 -48 -107 8
-8 488 -9 496 -1 8 7 -233 494 -244 494 -4 0 -39 -64 -79 -142z"/>
<path d="M1500 2111 c0 -16 10 -20 73 -26 87 -8 149 -34 174 -71 17 -26 18
-66 21 -634 4 -703 2 -738 -39 -785 -33 -37 -88 -55 -173 -55 -49 0 -56 -2
-56 -20 0 -20 7 -20 501 -20 471 0 500 1 497 17 -3 15 -18 19 -83 24 -84 6
-127 22 -160 59 -20 22 -20 39 -23 699 -3 620 -2 679 14 708 23 44 82 70 177
78 64 6 77 10 75 24 -3 14 -50 16 -501 19 -483 2 -497 2 -497 -17z"/>
<path d="M2670 1910 l0 -220 24 0 c22 0 27 8 42 61 9 33 34 86 54 118 78 120
157 156 370 167 l130 7 0 -699 c0 -676 -1 -700 -20 -731 -28 -47 -73 -66 -167
-71 -73 -4 -83 -7 -83 -23 0 -18 18 -19 500 -19 482 0 500 1 500 19 0 16 -10
19 -77 23 -86 5 -153 32 -175 71 -10 17 -13 171 -13 722 l0 700 134 -3 c157
-3 190 -10 262 -58 69 -45 120 -114 154 -209 24 -64 31 -75 51 -75 l24 0 0
220 0 220 -855 0 -855 0 0 -220z"/>
<path d="M4547 2123 c-21 -21 -2 -31 71 -38 94 -9 130 -23 165 -64 l27 -33 0
-666 c0 -615 -1 -670 -18 -702 -25 -50 -70 -72 -165 -79 -67 -5 -82 -9 -85
-24 -3 -16 40 -17 824 -15 l828 3 38 225 c20 124 39 237 42 253 5 23 2 27 -18
27 -20 0 -31 -14 -69 -92 -82 -169 -219 -273 -412 -313 -117 -25 -387 -26
-435 -2 -65 32 -65 30 -68 371 l-3 309 73 -6 c101 -9 160 -31 209 -80 59 -59
94 -135 123 -269 5 -21 12 -28 31 -28 l25 0 0 426 0 425 -27 -3 c-25 -3 -28
-8 -39 -68 -7 -36 -23 -90 -37 -121 -53 -120 -138 -177 -279 -187 l-78 -5 2
334 3 334 200 -3 c216 -3 269 -9 358 -42 118 -44 188 -123 231 -258 21 -68 27
-77 50 -80 l26 -3 0 240 0 241 -793 0 c-437 0 -797 -3 -800 -7z"/>
</g>
</svg>
